<svg xmlns="http://www.w3.org/2000/svg" xmlns:xlink="http://www.w3.org/1999/xlink" style="width: 100%; height: 100%" viewBox="0 0 80 80" preserveAspectRatio="none" width="80" height="80"><defs><svg width="80" height="80" viewBox="0 0 80 80" fill="none" xmlns="http://www.w3.org/2000/svg" id="svg1722825845_994">
<path d="M3.38672 57.7607C3.38672 58.5563 3.66602 59.2334 4.22461 59.792C4.7832 60.3675 5.46029 60.6553 6.25586 60.6553H73.7441C74.5397 60.6553 75.2168 60.3675 75.7754 59.792C76.334 59.2334 76.6133 58.5563 76.6133 57.7607C76.6133 56.9652 76.334 56.2881 75.7754 55.7295C75.2168 55.154 74.5397 54.8662 73.7441 54.8662H68.1836V24.7275C68.1836 22.9502 67.7181 21.613 66.7871 20.7158C65.873 19.8018 64.5273 19.3447 62.75 19.3447H17.25C15.5742 19.3447 14.2454 19.8018 13.2637 20.7158C12.2988 21.613 11.8164 22.9502 11.8164 24.7275V54.8662H6.25586C5.46029 54.8662 4.7832 55.154 4.22461 55.7295C3.66602 56.2881 3.38672 56.9652 3.38672 57.7607ZM15.9043 54.8662V25.8701C15.9043 25.0576 16.1074 24.4482 16.5137 24.042C16.9199 23.6357 17.5293 23.4326 18.3418 23.4326H61.6582C62.4707 23.4326 63.0801 23.6357 63.4863 24.042C63.8926 24.4482 64.0957 25.0576 64.0957 25.8701V54.8662H15.9043Z" fill="black"></path>
</svg></defs><use href="#svg1722825845_994"></use></svg>