<svg xmlns="http://www.w3.org/2000/svg" xmlns:xlink="http://www.w3.org/1999/xlink" style="width: 100%; height: 100%" viewBox="0 0 80 80" preserveAspectRatio="none" width="80" height="80"><defs><svg width="80" height="80" viewBox="0 0 80 80" fill="none" xmlns="http://www.w3.org/2000/svg" id="svg-1870988067_2740">
<path d="M41.4989 25.1211C40.9403 25.1211 40.4579 25.3158 40.0516 25.7051C39.6623 26.0944 39.4676 26.5684 39.4676 27.127V41.2949C39.4676 41.5996 39.5184 41.8874 39.62 42.1582C39.7216 42.4121 39.8739 42.6745 40.077 42.9453L46.3485 51.2227C46.7717 51.7643 47.2541 52.0859 47.7958 52.1875C48.3544 52.2721 48.8876 52.1367 49.3954 51.7812C49.8693 51.4596 50.1232 51.028 50.1571 50.4863C50.2079 49.9277 50.0386 49.3945 49.6493 48.8867L41.1942 37.4863L43.5048 44.5957V27.127C43.5048 26.5684 43.3101 26.0944 42.9208 25.7051C42.5314 25.3158 42.0575 25.1211 41.4989 25.1211ZM42.4637 65.8984C46.0015 65.8984 49.3277 65.2214 52.4423 63.8672C55.5738 62.513 58.3329 60.6426 60.7196 58.2559C63.1063 55.8691 64.9768 53.1185 66.3309 50.0039C67.6851 46.8724 68.3622 43.5378 68.3622 40C68.3622 36.4622 67.6851 33.1361 66.3309 30.0215C64.9768 26.89 63.1063 24.1309 60.7196 21.7441C58.3329 19.3574 55.5738 17.487 52.4423 16.1328C49.3277 14.7786 46.0015 14.1016 42.4637 14.1016C38.926 14.1016 35.5913 14.7786 32.4598 16.1328C29.3452 17.487 26.5946 19.3574 24.2079 21.7441C21.8212 24.1139 19.9507 26.8646 18.5966 29.9961C17.2424 33.1107 16.5653 36.4368 16.5653 39.9746H20.8817C20.8817 36.9785 21.4318 34.1771 22.5321 31.5703C23.6493 28.9635 25.1981 26.6784 27.1786 24.7148C29.1591 22.7513 31.4527 21.2194 34.0594 20.1191C36.6662 19.002 39.4676 18.4434 42.4637 18.4434C45.4598 18.4434 48.2613 19.002 50.868 20.1191C53.4748 21.2194 55.76 22.7598 57.7235 24.7402C59.704 26.7038 61.2528 28.9889 62.37 31.5957C63.4872 34.2025 64.0458 37.0039 64.0458 40C64.0458 42.9961 63.4872 45.806 62.37 48.4297C61.2528 51.0365 59.704 53.3301 57.7235 55.3105C55.76 57.2741 53.4748 58.8145 50.868 59.9316C48.2613 61.0488 45.4598 61.599 42.4637 61.582C40.0432 61.5651 37.7495 61.1842 35.5829 60.4395C33.4162 59.7116 31.4273 58.679 29.6161 57.3418C27.8218 56.0046 26.2814 54.4388 24.995 52.6445C24.6057 52.1198 24.1317 51.7897 23.5731 51.6543C23.0314 51.502 22.4898 51.5866 21.9481 51.9082C21.4403 52.2298 21.1271 52.6953 21.0087 53.3047C20.9071 53.9141 21.0764 54.498 21.5165 55.0566C23.1245 57.2064 25.0119 59.0938 27.1786 60.7188C29.3452 62.3607 31.7235 63.6302 34.3133 64.5273C36.9032 65.4414 39.62 65.8984 42.4637 65.8984ZM13.4423 35.0996C12.8329 35.0996 12.3758 35.2266 12.0712 35.4805C11.7665 35.7174 11.6226 36.0391 11.6395 36.4453C11.6564 36.8516 11.8257 37.2917 12.1473 37.7656L17.8348 45.8398C18.258 46.4323 18.7404 46.7285 19.2821 46.7285C19.8238 46.7116 20.2977 46.4154 20.704 45.8398L26.3915 37.7402C26.7131 37.2663 26.8739 36.8346 26.8739 36.4453C26.8908 36.0391 26.7469 35.7174 26.4423 35.4805C26.1376 35.2266 25.689 35.0996 25.0966 35.0996H13.4423Z" fill="black"></path>
</svg></defs><use href="#svg-1870988067_2740"></use></svg>