<svg xmlns="http://www.w3.org/2000/svg" xmlns:xlink="http://www.w3.org/1999/xlink" style="width: 100%; height: 100%" viewBox="0 0 80 80" preserveAspectRatio="none" width="80" height="80"><defs><svg width="80" height="80" viewBox="0 0 80 80" fill="none" xmlns="http://www.w3.org/2000/svg" id="svg-894362117_2937">
<path d="M30.123 33.2715H34.4141C35.1758 33.2715 35.6497 32.916 35.8359 32.2051L38.0195 23.3945H35.8105L39.0098 38.9082C39.0944 39.3822 39.3145 39.7038 39.6699 39.873C40.0423 40.0254 40.4147 40.0254 40.7871 39.873C41.1595 39.7207 41.4219 39.416 41.5742 38.959L45.1797 26.4922L43.123 26.4414L44.4688 32.1289C44.638 32.8906 45.112 33.2715 45.8906 33.2715H49.877C50.2493 33.2715 50.5625 33.1445 50.8164 32.8906C51.0703 32.6367 51.1973 32.332 51.1973 31.9766C51.1973 31.6042 51.0703 31.291 50.8164 31.0371C50.5625 30.7832 50.2493 30.6562 49.877 30.6562H46.1445L46.8047 31.1641L45.3574 25.5527C45.2389 25.1126 45.002 24.8249 44.6465 24.6895C44.291 24.5371 43.9355 24.5456 43.5801 24.7148C43.2246 24.8672 42.9707 25.1634 42.8184 25.6035L39.1367 37.6387H41.2695L38.1211 22.125C38.0195 21.668 37.791 21.3633 37.4355 21.2109C37.0801 21.0417 36.7161 21.0332 36.3438 21.1855C35.9714 21.3379 35.7344 21.6426 35.6328 22.0996L33.3477 31.4434L34.1094 30.6562H30.123C29.7507 30.6562 29.4375 30.7917 29.1836 31.0625C28.9297 31.3164 28.8027 31.6211 28.8027 31.9766C28.8027 32.332 28.9297 32.6367 29.1836 32.8906C29.4375 33.1445 29.7507 33.2715 30.123 33.2715ZM30.377 46.7793H49.6484C50.0885 46.7793 50.4525 46.627 50.7402 46.3223C51.0449 46.0176 51.1973 45.6452 51.1973 45.2051C51.1973 44.765 51.0449 44.401 50.7402 44.1133C50.4525 43.8086 50.0885 43.6562 49.6484 43.6562H30.377C29.9199 43.6562 29.5391 43.8086 29.2344 44.1133C28.9466 44.401 28.8027 44.765 28.8027 45.2051C28.8027 45.6452 28.9466 46.0176 29.2344 46.3223C29.5391 46.627 29.9199 46.7793 30.377 46.7793ZM30.377 55.6406H39.4922C39.9492 55.6406 40.3216 55.4967 40.6094 55.209C40.9141 54.9043 41.0664 54.5319 41.0664 54.0918C41.0664 53.6517 40.9141 53.2793 40.6094 52.9746C40.3216 52.6699 39.9492 52.5176 39.4922 52.5176H30.377C29.9199 52.5176 29.5391 52.6699 29.2344 52.9746C28.9466 53.2793 28.8027 53.6517 28.8027 54.0918C28.8027 54.5319 28.9466 54.9043 29.2344 55.209C29.5391 55.4967 29.9199 55.6406 30.377 55.6406ZM18.6465 59.2715C18.6465 61.929 19.2982 63.918 20.6016 65.2383C21.9219 66.5586 23.8939 67.2188 26.5176 67.2188H53.4824C56.1061 67.2188 58.0697 66.5586 59.373 65.2383C60.6934 63.918 61.3535 61.929 61.3535 59.2715V20.7539C61.3535 18.1133 60.6934 16.1243 59.373 14.7871C58.0697 13.4499 56.1061 12.7812 53.4824 12.7812H26.5176C23.8939 12.7812 21.9219 13.4499 20.6016 14.7871C19.2982 16.1243 18.6465 18.1133 18.6465 20.7539V59.2715ZM22.7344 59.1953V20.8301C22.7344 19.5605 23.0645 18.5872 23.7246 17.9102C24.4017 17.2161 25.4004 16.8691 26.7207 16.8691H53.2793C54.5996 16.8691 55.5898 17.2161 56.25 17.9102C56.9271 18.5872 57.2656 19.5605 57.2656 20.8301V59.1953C57.2656 60.4648 56.9271 61.4382 56.25 62.1152C55.5898 62.7923 54.5996 63.1309 53.2793 63.1309H26.7207C25.4004 63.1309 24.4017 62.7923 23.7246 62.1152C23.0645 61.4382 22.7344 60.4648 22.7344 59.1953Z" fill="black"></path>
</svg></defs><use href="#svg-894362117_2937"></use></svg>