<svg xmlns="http://www.w3.org/2000/svg" xmlns:xlink="http://www.w3.org/1999/xlink" style="width: 100%; height: 100%" viewBox="0 0 80 80" preserveAspectRatio="none" width="80" height="80"><defs><svg width="80" height="80" viewBox="0 0 80 80" fill="none" xmlns="http://www.w3.org/2000/svg" id="svg1191175296_2007">
<path d="M12.7812 25.1846V28.7646H67.2188V25.1846H12.7812ZM18.0371 63.3721H61.9629C64.6374 63.3721 66.6348 62.7119 67.9551 61.3916C69.2754 60.0882 69.9355 58.1331 69.9355 55.5264V24.499C69.9355 21.8923 69.2754 19.9287 67.9551 18.6084C66.6348 17.2881 64.6374 16.6279 61.9629 16.6279H18.0371C15.3796 16.6279 13.3822 17.2881 12.0449 18.6084C10.7246 19.9118 10.0645 21.8753 10.0645 24.499V55.5264C10.0645 58.1331 10.7246 60.0882 12.0449 61.3916C13.3822 62.7119 15.3796 63.3721 18.0371 63.3721ZM18.0879 59.2842C16.8184 59.2842 15.8451 58.9541 15.168 58.2939C14.4909 57.6169 14.1523 56.6182 14.1523 55.2979V24.7275C14.1523 23.4072 14.4909 22.4085 15.168 21.7314C15.8451 21.0544 16.8184 20.7158 18.0879 20.7158H61.9121C63.1647 20.7158 64.1296 21.0544 64.8066 21.7314C65.5007 22.4085 65.8477 23.4072 65.8477 24.7275V55.2979C65.8477 56.6182 65.5007 57.6169 64.8066 58.2939C64.1296 58.9541 63.1647 59.2842 61.9121 59.2842H18.0879ZM40.0254 53.8506C40.5671 53.8506 41.041 53.6559 41.4473 53.2666C41.8535 52.8773 42.0566 52.4118 42.0566 51.8701V43.4912L41.8789 39.2256L44.0625 41.5107L47.3633 44.8115C47.5664 45.0146 47.7865 45.167 48.0234 45.2686C48.2604 45.3701 48.4974 45.4209 48.7344 45.4209C49.276 45.4209 49.7246 45.2516 50.0801 44.9131C50.4355 44.5745 50.6133 44.1429 50.6133 43.6182C50.6133 43.3304 50.554 43.0765 50.4355 42.8564C50.334 42.6195 50.1732 42.4079 49.9531 42.2217L41.498 34.3506C40.9902 33.8936 40.4993 33.665 40.0254 33.665C39.5514 33.665 39.0605 33.8936 38.5527 34.3506L30.0977 42.2217C29.8945 42.4079 29.7337 42.6195 29.6152 42.8564C29.4967 43.0765 29.4375 43.3304 29.4375 43.6182C29.4375 44.1429 29.6068 44.5745 29.9453 44.9131C30.3008 45.2516 30.7493 45.4209 31.291 45.4209C31.8158 45.4209 32.2812 45.2178 32.6875 44.8115L35.9883 41.5107L38.1719 39.2256L38.0195 43.4912V51.8701C38.0195 52.4118 38.2142 52.8773 38.6035 53.2666C39.0098 53.6559 39.4837 53.8506 40.0254 53.8506Z" fill="black"></path>
</svg></defs><use href="#svg1191175296_2007"></use></svg>