<svg xmlns="http://www.w3.org/2000/svg" xmlns:xlink="http://www.w3.org/1999/xlink" style="width: 100%; height: 100%" viewBox="0 0 80 80" preserveAspectRatio="none" width="80" height="80"><defs><svg width="80" height="80" viewBox="0 0 80 80" fill="none" xmlns="http://www.w3.org/2000/svg" id="svg1303406184_3831">
<path d="M40 64.7559C43.3854 64.7559 46.5677 64.1042 49.5469 62.8008C52.543 61.5143 55.1751 59.737 57.4434 57.4688C59.7285 55.1836 61.5228 52.5514 62.8262 49.5723C64.1296 46.5762 64.7812 43.3854 64.7812 40C64.7812 36.6146 64.1296 33.4323 62.8262 30.4531C61.5228 27.457 59.7285 24.8249 57.4434 22.5566C55.1751 20.2715 52.543 18.4857 49.5469 17.1992C46.5508 15.8958 43.36 15.2441 39.9746 15.2441C36.5892 15.2441 33.4069 15.8874 30.4277 17.1738C27.4486 18.4603 24.8164 20.2461 22.5312 22.5312C20.263 24.8164 18.4772 27.457 17.1738 30.4531C15.8874 33.4323 15.2441 36.6146 15.2441 40C15.2441 43.3854 15.8874 46.5762 17.1738 49.5723C18.4772 52.5514 20.263 55.1836 22.5312 57.4688C24.8164 59.737 27.4486 61.5143 30.4277 62.8008C33.4238 64.1042 36.6146 64.7559 40 64.7559ZM40 60.4395C37.1732 60.4395 34.5241 59.9147 32.0527 58.8652C29.5814 57.8158 27.4062 56.36 25.5273 54.498C23.6654 52.6191 22.2096 50.444 21.1602 47.9727C20.1107 45.5013 19.5859 42.8438 19.5859 40C19.5859 37.1562 20.1107 34.4987 21.1602 32.0273C22.2096 29.556 23.6654 27.3893 25.5273 25.5273C27.3893 23.6484 29.556 22.1842 32.0273 21.1348C34.4987 20.0684 37.1478 19.5352 39.9746 19.5352C42.8184 19.5352 45.4759 20.0684 47.9473 21.1348C50.4186 22.1842 52.5853 23.6484 54.4473 25.5273C56.3262 27.3893 57.7904 29.556 58.8398 32.0273C59.9062 34.4987 60.4479 37.1562 60.4648 40C60.4648 42.8268 59.9401 45.4759 58.8906 47.9473C57.8411 50.4186 56.377 52.5938 54.498 54.4727C52.6191 56.3516 50.444 57.8158 47.9727 58.8652C45.5013 59.9147 42.8438 60.4395 40 60.4395ZM3.76758 40C3.76758 44.0117 4.38542 47.8372 5.62109 51.4766C6.85677 55.1159 8.58333 58.4421 10.8008 61.4551C11.1901 61.9967 11.681 62.293 12.2734 62.3438C12.8828 62.4115 13.4414 62.2422 13.9492 61.8359C14.4062 61.4466 14.6602 60.9727 14.7109 60.4141C14.7786 59.8555 14.6263 59.3223 14.2539 58.8145C12.3242 56.1908 10.8177 53.2793 9.73438 50.0801C8.65104 46.8809 8.10938 43.5208 8.10938 40C8.10938 36.4622 8.65104 33.1022 9.73438 29.9199C10.8177 26.7207 12.3242 23.7923 14.2539 21.1348C14.6263 20.6439 14.7871 20.1191 14.7363 19.5605C14.6855 19.002 14.4232 18.528 13.9492 18.1387C13.4414 17.7324 12.8828 17.5632 12.2734 17.6309C11.681 17.6986 11.1901 17.9948 10.8008 18.5195C8.58333 21.5326 6.85677 24.8587 5.62109 28.498C4.38542 32.1374 3.76758 35.9714 3.76758 40ZM76.2324 40C76.2324 35.9714 75.6146 32.1374 74.3789 28.498C73.1432 24.8587 71.4167 21.5326 69.1992 18.5195C68.8099 17.9948 68.3105 17.6986 67.7012 17.6309C67.1087 17.5632 66.5586 17.7324 66.0508 18.1387C65.5768 18.528 65.3145 19.002 65.2637 19.5605C65.2298 20.1191 65.3906 20.6439 65.7461 21.1348C67.6927 23.7923 69.1992 26.7207 70.2656 29.9199C71.349 33.1022 71.8906 36.4622 71.8906 40C71.8906 43.5208 71.349 46.8809 70.2656 50.0801C69.1992 53.2793 67.6927 56.1908 65.7461 58.8145C65.3906 59.3223 65.2383 59.8555 65.2891 60.4141C65.3398 60.9727 65.5938 61.4466 66.0508 61.8359C66.5586 62.2422 67.1087 62.4115 67.7012 62.3438C68.3105 62.293 68.8099 61.9967 69.1992 61.4551C71.4167 58.4421 73.1432 55.1159 74.3789 51.4766C75.6146 47.8372 76.2324 44.0117 76.2324 40ZM29.3867 41.625C29.3867 41.9297 29.4967 42.1836 29.7168 42.3867C29.9368 42.5729 30.1992 42.666 30.5039 42.666H38.6797L34.3125 54.4219C34.1263 54.9297 34.1348 55.3444 34.3379 55.666C34.5579 55.9876 34.8711 56.1569 35.2773 56.1738C35.6836 56.1908 36.056 55.9961 36.3945 55.5898L49.6484 38.959C49.9193 38.6374 50.0547 38.3242 50.0547 38.0195C50.0547 37.6979 49.9447 37.444 49.7246 37.2578C49.5046 37.0547 49.2422 36.9531 48.9375 36.9531H40.7363L45.1289 25.1973C45.3151 24.6725 45.2982 24.2493 45.0781 23.9277C44.8581 23.6061 44.5449 23.4453 44.1387 23.4453C43.7493 23.4284 43.3854 23.6315 43.0469 24.0547L29.793 40.6855C29.5221 40.9902 29.3867 41.3034 29.3867 41.625Z" fill="black"></path>
</svg></defs><use href="#svg1303406184_3831"></use></svg>