<svg xmlns="http://www.w3.org/2000/svg" xmlns:xlink="http://www.w3.org/1999/xlink" style="width: 100%; height: 100%" viewBox="0 0 80 80" preserveAspectRatio="none" width="80" height="80"><defs><svg width="80" height="80" viewBox="0 0 80 80" fill="none" xmlns="http://www.w3.org/2000/svg" id="svg834740694_2162">
<path d="M6.90332 40C6.90332 43.0638 7.49577 45.7298 8.68066 47.998C9.88249 50.2663 11.5498 52.0267 13.6826 53.2793C15.8324 54.515 18.3122 55.1328 21.1221 55.1328C23.4242 55.1328 25.5739 54.6419 27.5713 53.6602C29.5687 52.6615 31.6169 51.1549 33.7158 49.1406L40.0127 43.0977L46.2842 49.1406C48.3831 51.1549 50.4313 52.6615 52.4287 53.6602C54.443 54.6419 56.5928 55.1328 58.8779 55.1328C61.6878 55.1328 64.1592 54.515 66.292 53.2793C68.4417 52.0267 70.109 50.2663 71.2939 47.998C72.4958 45.7298 73.0967 43.0638 73.0967 40C73.0967 36.9362 72.4958 34.2702 71.2939 32.002C70.109 29.7337 68.4417 27.9818 66.292 26.7461C64.1592 25.4935 61.6878 24.8672 58.8779 24.8672C56.5928 24.8672 54.443 25.3665 52.4287 26.3652C50.4313 27.347 48.3831 28.8451 46.2842 30.8594L40.0127 36.9023L33.7158 30.8594C31.6169 28.8451 29.5687 27.347 27.5713 26.3652C25.5739 25.3665 23.4242 24.8672 21.1221 24.8672C18.3122 24.8672 15.8324 25.4935 13.6826 26.7461C11.5498 27.9818 9.88249 29.7337 8.68066 32.002C7.49577 34.2702 6.90332 36.9362 6.90332 40ZM11.499 40C11.499 37.8503 11.9053 35.9883 12.7178 34.4141C13.5303 32.8398 14.6559 31.6211 16.0947 30.7578C17.5505 29.8945 19.2262 29.4629 21.1221 29.4629C22.7471 29.4629 24.3044 29.8607 25.7939 30.6562C27.2835 31.4349 28.8493 32.5859 30.4912 34.1094L36.7881 40L30.4658 45.8906C28.8408 47.4141 27.2835 48.5736 25.7939 49.3691C24.3044 50.1478 22.7471 50.5371 21.1221 50.5371C19.2262 50.5371 17.5505 50.1055 16.0947 49.2422C14.6559 48.3789 13.5303 47.1602 12.7178 45.5859C11.9053 43.9948 11.499 42.1328 11.499 40ZM43.2119 40L49.5088 34.1094C51.1507 32.5859 52.7165 31.4349 54.2061 30.6562C55.6956 29.8607 57.2529 29.4629 58.8779 29.4629C60.7738 29.4629 62.4411 29.8945 63.8799 30.7578C65.3356 31.6211 66.4697 32.8398 67.2822 34.4141C68.0947 35.9883 68.501 37.8503 68.501 40C68.501 42.1328 68.0947 43.9948 67.2822 45.5859C66.4697 47.1602 65.3356 48.3789 63.8799 49.2422C62.4411 50.1055 60.7738 50.5371 58.8779 50.5371C57.2529 50.5371 55.6956 50.1478 54.2061 49.3691C52.7165 48.5736 51.1592 47.4141 49.5342 45.8906L43.2119 40Z" fill="black"></path>
</svg></defs><use href="#svg834740694_2162"></use></svg>