<svg xmlns="http://www.w3.org/2000/svg" xmlns:xlink="http://www.w3.org/1999/xlink" style="width: 100%; height: 100%" viewBox="0 0 80 80" preserveAspectRatio="none" width="80" height="80"><defs><svg width="80" height="80" viewBox="0 0 80 80" fill="none" xmlns="http://www.w3.org/2000/svg" id="svg820329628_4327">
<path d="M12.8397 59.877C14.0246 61.4682 15.4719 62.7546 17.1815 63.7364C18.9081 64.7351 20.7446 65.4037 22.6913 65.7422C24.6379 66.0808 26.5591 66.0554 28.4549 65.6661C30.3508 65.2937 32.0689 64.5404 33.6092 63.4063C35.3696 62.1029 36.6476 60.5964 37.4432 58.8868C38.2557 57.1941 38.5519 55.4337 38.3319 53.6055C38.1288 51.7605 37.384 49.9831 36.0975 48.2735C34.8957 46.6485 33.5331 45.4467 32.0096 44.668C30.4862 43.8725 28.9289 43.5255 27.3377 43.627C25.7635 43.7286 24.2739 44.3126 22.869 45.379C21.8872 46.1238 21.1763 46.9278 20.7362 47.7911C20.313 48.6374 20.0083 49.4838 19.8221 50.3301C19.6359 51.1596 19.4413 51.9213 19.2381 52.6153C19.035 53.3093 18.6542 53.8594 18.0956 54.2657C17.4523 54.7396 16.826 55.0274 16.2167 55.129C15.6073 55.2305 15.0318 55.3067 14.4901 55.3575C13.9484 55.4083 13.4406 55.6114 12.9667 55.9669C12.4588 56.3731 12.1542 56.9232 12.0526 57.6172C11.968 58.3113 12.2303 59.0645 12.8397 59.877ZM18.0194 59.4708C17.8501 59.3015 17.7655 59.1322 17.7655 58.963C17.7655 58.7937 17.8247 58.6498 17.9432 58.5313C18.0617 58.4297 18.2733 58.3282 18.578 58.2266C18.8996 58.142 19.2635 58.015 19.6698 57.8458C20.076 57.6596 20.4569 57.3803 20.8124 57.0079C21.4387 56.3985 21.8872 55.7383 22.1581 55.0274C22.4458 54.2995 22.6913 53.5632 22.8944 52.8184C23.0975 52.0736 23.3683 51.3542 23.7069 50.6602C24.0454 49.9493 24.5702 49.323 25.2811 48.7813C26.0767 48.155 26.94 47.808 27.871 47.7403C28.8019 47.6726 29.7245 47.8672 30.6385 48.3243C31.5526 48.7813 32.382 49.4838 33.1268 50.4317C33.9562 51.515 34.4217 52.6491 34.5233 53.834C34.6418 55.002 34.4217 56.1446 33.8631 57.2618C33.3045 58.362 32.4582 59.3523 31.3241 60.2325C30.3592 60.9942 29.2928 61.5528 28.1249 61.9083C26.9738 62.2807 25.7889 62.4415 24.5702 62.3907C23.3514 62.3399 22.175 62.0775 21.0409 61.6036C19.9068 61.1296 18.8996 60.4187 18.0194 59.4708ZM37.6717 53.834C39.0428 53.6817 40.3377 53.2585 41.5565 52.5645C42.7752 51.8705 44.0279 50.8718 45.3143 49.5684C46.6685 48.2143 48.1157 46.6316 49.6561 44.8204C51.1965 43.0092 52.7453 41.1049 54.3026 39.1075C55.8768 37.0932 57.3749 35.1127 58.7967 33.1661C60.2355 31.2195 61.5389 29.4337 62.7069 27.8087C63.8749 26.1667 64.8312 24.8041 65.576 23.7208C66.3377 22.6374 66.8117 21.9688 66.9979 21.7149C67.6411 20.8347 67.9627 19.9376 67.9627 19.0235C67.9627 18.1094 67.7342 17.28 67.2772 16.5352C66.8202 15.7735 66.2108 15.1641 65.4491 14.7071C64.7043 14.2501 63.8749 14.0215 62.9608 14.0215C62.0467 14.0215 61.1411 14.3347 60.244 14.961C59.9901 15.1472 59.3215 15.6127 58.2381 16.3575C57.1548 17.1023 55.7922 18.0587 54.1502 19.2266C52.5252 20.3946 50.7394 21.698 48.7928 23.1368C46.8462 24.5587 44.8657 26.0567 42.8514 27.6309C40.854 29.1882 38.9497 30.737 37.1385 32.2774C35.3273 33.8178 33.7446 35.2735 32.3905 36.6446C31.121 37.9311 30.1307 39.1752 29.4198 40.377C28.7258 41.5788 28.2941 42.8484 28.1249 44.1856L32.1112 45.2774C32.145 44.3464 32.4159 43.4154 32.9237 42.4844C33.4315 41.5534 34.2101 40.5717 35.2596 39.5391C36.6138 38.2019 38.1795 36.7885 39.9569 35.2989C41.7342 33.7924 43.6047 32.2774 45.5682 30.754C47.5318 29.2305 49.453 27.7748 51.3319 26.3868C53.2277 24.9818 54.9627 23.7208 56.537 22.6036C58.1112 21.4695 59.3976 20.5469 60.3963 19.836C61.412 19.1251 62.0129 18.7019 62.1991 18.5665C62.4868 18.3464 62.7577 18.2872 63.0116 18.3887C63.2824 18.4734 63.4601 18.6511 63.5448 18.9219C63.6463 19.1928 63.5871 19.4805 63.367 19.7852C63.2655 19.9545 62.8592 20.5469 62.1483 21.5626C61.4543 22.5613 60.5402 23.8477 59.4061 25.4219C58.2889 26.9962 57.0279 28.7312 55.6229 30.627C54.218 32.5228 52.7453 34.4525 51.2049 36.4161C49.6815 38.3796 48.1665 40.2585 46.66 42.0528C45.1535 43.8301 43.7401 45.379 42.4198 46.6993C41.3872 47.7318 40.4393 48.4851 39.576 48.959C38.7297 49.433 37.8664 49.7208 36.9862 49.8223L37.6717 53.834ZM42.1659 47.461L45.4159 46.6231C45.3312 45.4213 44.9927 44.2449 44.4002 43.0938C43.8247 41.9258 43.0715 40.8679 42.1405 39.92C41.2095 38.9721 40.1769 38.2019 39.0428 37.6094C37.9087 37.0001 36.7407 36.6446 35.5389 36.543L34.4471 39.793C35.2596 39.7761 36.1144 40.0046 37.0116 40.4786C37.9087 40.9525 38.7466 41.5788 39.5252 42.3575C40.3039 43.1361 40.9387 43.9825 41.4295 44.8965C41.9204 45.7937 42.1659 46.6485 42.1659 47.461Z" fill="black"></path>
</svg></defs><use href="#svg820329628_4327"></use></svg>